<?xml version="1.0" encoding="utf-8"?>
<!-- Generator: Adobe Illustrator 22.1.0, SVG Export Plug-In . SVG Version: 6.00 Build 0)  -->
<svg version="1.1" id="Layer_1" xmlns="http://www.w3.org/2000/svg" xmlns:xlink="http://www.w3.org/1999/xlink" x="0px" y="0px"
	 viewBox="0 0 2267.7 2267.7" style="enable-background:new 0 0 2267.7 2267.7;" xml:space="preserve">
<style type="text/css">
	.st0{fill:none;stroke:#000000;stroke-width:20;stroke-miterlimit:10;}
	.st1{fill:url(#SVGID_1_);}
	.st2{fill:url(#SVGID_2_);}
	.st3{fill:url(#SVGID_3_);}
	.st4{fill:url(#SVGID_4_);}
	.st5{fill:url(#SVGID_5_);}
	.st6{fill:url(#SVGID_6_);}
	.st7{fill:url(#SVGID_7_);}
	.st8{fill:url(#SVGID_8_);}
	.st9{fill:url(#SVGID_9_);}
	.st10{fill:url(#SVGID_10_);}
</style>
<polygon class="st0" points="106.3,191.6 106.3,191.6 106.3,191.6 106.3,191.6 "/>
<g>
	<linearGradient id="SVGID_1_" gradientUnits="userSpaceOnUse" x1="412.2957" y1="1773.9038" x2="1543.4088" y2="489.7754">
		<stop  offset="0" style="stop-color:#0071BC"/>
		<stop  offset="1" style="stop-color:#8CC63F"/>
	</linearGradient>
	<path class="st1" d="M793.2,1443.6c13.3,36.6-7.7,66.6-46.6,66.6H573.7c-39,0-60-30-46.6-66.6l44.7-122.9
		c-5.8-3.7-11.5-7.6-17.1-11.6l-48.9,134.5c-13.3,36.6-41.5,66.6-62.5,66.6c-21,0-16.2,23.1,10.7,51.2c0,0,65.3,68.3,206.2,68.3
		s206.2-68.3,206.2-68.3c26.9-28.2,31.8-51.2,10.7-51.2s-49.2-30-62.5-66.6l-16.9-46.4c-7.4-0.6-14.8-1.3-22.1-2.2L793.2,1443.6z"/>
	<linearGradient id="SVGID_2_" gradientUnits="userSpaceOnUse" x1="803.9133" y1="2118.8567" x2="1935.0265" y2="834.7284">
		<stop  offset="0" style="stop-color:#0071BC"/>
		<stop  offset="1" style="stop-color:#8CC63F"/>
	</linearGradient>
	<path class="st2" d="M1354.7,1691.6c-15.6,0-36.2-10-45.9-22.3c0,0-68.7-87.3-174.5-100.3v-271.7c-16.6,12.8-34.1,24.6-52.4,35.3
		V1569c-105.8,13-174.5,100.3-174.5,100.3c-9.6,12.3-30.3,22.3-45.9,22.3h-163c-15.6,0-28.3,12.8-28.3,28.3v101
		c27.5-67,93.4-114.3,170.3-114.3c89.5,0,164.1,63.9,180.6,148.6h496.5c15.6,0,28.3-12.8,28.3-28.3v-83.5
		c-51.1-5.9-98.3-24.2-138.7-51.8H1354.7z"/>
	<linearGradient id="SVGID_3_" gradientUnits="userSpaceOnUse" x1="660.7899" y1="1992.7877" x2="1791.903" y2="708.6593">
		<stop  offset="0" style="stop-color:#0071BC"/>
		<stop  offset="1" style="stop-color:#8CC63F"/>
	</linearGradient>
	<path class="st3" d="M1562,723.4c-4.4,12.4-10.7,30-17.7,49.4l-119.5,328.3c-13.3,36.6-41.5,66.6-62.5,66.6
		c-19.6,0-16.7,20,5.6,45.6c25.4-24.3,54.8-44.3,87.3-58.9c-12.8-12.2-17-31.6-9.1-53.3L1554.9,802c13.3-36.6,35.1-36.6,48.5,0
		l108.9,299.1c7.6,20.8,4,39.5-7.6,51.8c32.7,14.2,62.4,33.8,88,57.8c20.3-24.3,22.3-43,3.3-43c-21,0-49.2-30-62.5-66.6
		l-119.5-328.3c-9.5-26.2-17.7-49.2-21.5-60.5l30.7-11.2c7.2-2.6,13.1-7.7,16.5-14.2c3.4-6.5,4-13.8,1.6-20.3
		c-2.4-6.6-7.5-11.7-14.3-14.5c-6.8-2.8-14.6-2.9-21.8-0.3l-303.7,110.5c5.3,16.6,9.7,33.6,13.2,50.9L1562,723.4z"/>
	<linearGradient id="SVGID_4_" gradientUnits="userSpaceOnUse" x1="485.5466" y1="1838.4263" x2="1616.6598" y2="554.2979">
		<stop  offset="0" style="stop-color:#0071BC"/>
		<stop  offset="1" style="stop-color:#8CC63F"/>
	</linearGradient>
	<path class="st4" d="M1324.6,910.7c0-33.3-3.3-65.9-9.7-97.4l-154.2,56.1c-14.5,5.3-26.3,22.1-26.3,37.6v390.3
		C1250.1,1208.1,1324.6,1068.1,1324.6,910.7z"/>
	<linearGradient id="SVGID_5_" gradientUnits="userSpaceOnUse" x1="134.1122" y1="1528.8684" x2="1265.2253" y2="244.74">
		<stop  offset="0" style="stop-color:#0071BC"/>
		<stop  offset="1" style="stop-color:#8CC63F"/>
	</linearGradient>
	<path class="st5" d="M646.1,1056.7l-35.1,12.8c-7.2,2.6-14.9,2.5-21.8-0.3c-6.8-2.8-11.9-7.9-14.3-14.5c-4.9-13.6,3.2-29,18.1-34.5
		l462.6-168.4c14.5-5.3,26.3-22.1,26.3-37.6V671c0-15.9,11.8-28.8,26.2-28.8s26.2,12.9,26.2,28.8v124.7c0,7.4,2.7,13.3,7.6,16.8
		s11.4,3.9,18.4,1.4l141.3-51.4c-62.8-197-247.2-339.7-465-339.7c-269.5,0-488,218.5-488,488c0,164.5,81.4,310,206.1,398.4
		l70.6-193.8C634.3,1090.5,642.1,1068.6,646.1,1056.7z"/>
	<linearGradient id="SVGID_6_" gradientUnits="userSpaceOnUse" x1="325.5123" y1="1697.4614" x2="1456.6254" y2="413.333">
		<stop  offset="0" style="stop-color:#0071BC"/>
		<stop  offset="1" style="stop-color:#8CC63F"/>
	</linearGradient>
	<path class="st6" d="M684.4,1144.5c-13.3-36.6-35.1-36.6-48.5,0l-64.1,176.2c60.1,38.9,129.3,65,203.7,74.2L684.4,1144.5z"/>
	<linearGradient id="SVGID_7_" gradientUnits="userSpaceOnUse" x1="384.1725" y1="1749.1318" x2="1515.2856" y2="465.0034">
		<stop  offset="0" style="stop-color:#0071BC"/>
		<stop  offset="1" style="stop-color:#8CC63F"/>
	</linearGradient>
	<path class="st7" d="M1074.3,909c-4.9-3.4-11.4-3.9-18.4-1.4l-384.8,140c0.3,2.1,10.8,32,23.8,67.7l102.6,281.9
		c12.9,1,25.8,1.5,39,1.5c89.5,0,173.3-24.1,245.4-66.1V925.7C1082,918.4,1079.3,912.4,1074.3,909z"/>
	<linearGradient id="SVGID_8_" gradientUnits="userSpaceOnUse" x1="903.3732" y1="2206.4651" x2="2034.4863" y2="922.3367">
		<stop  offset="0" style="stop-color:#0071BC"/>
		<stop  offset="1" style="stop-color:#8CC63F"/>
	</linearGradient>
	<path class="st8" d="M1792.7,1210.6c-2.2,2.7-4.7,5.4-7.4,8.2c0,0-65.3,68.3-206.2,68.3c-140.9,0-206.2-68.3-206.2-68.3
		c-1.8-1.9-3.5-3.8-5.2-5.6c-58.7,56.3-95.3,135.4-95.3,223.2c0,106,53.4,199.5,134.7,255.2h110.4c15.6,0,28.3,12.8,28.3,28.3v23.5
		c11.7,1.3,23.6,2.1,35.6,2.1c170.7,0,309.1-138.4,309.1-309.1C1890.7,1347.3,1853,1267,1792.7,1210.6z"/>
	<linearGradient id="SVGID_9_" gradientUnits="userSpaceOnUse" x1="762.1054" y1="2082.0308" x2="1893.2185" y2="797.9022">
		<stop  offset="0" style="stop-color:#0071BC"/>
		<stop  offset="1" style="stop-color:#8CC63F"/>
	</linearGradient>
	<path class="st9" d="M1492.7,1167.6h172.9c16.8,0,30.2-5.6,39-14.8c-37.7-16.4-79.3-25.5-123-25.5c-45.1,0-87.9,9.7-126.5,27
		C1464,1162.7,1476.9,1167.6,1492.7,1167.6z"/>
	<linearGradient id="SVGID_10_" gradientUnits="userSpaceOnUse" x1="715.189" y1="2040.7047" x2="1846.3021" y2="756.5764">
		<stop  offset="0" style="stop-color:#0071BC"/>
		<stop  offset="1" style="stop-color:#8CC63F"/>
	</linearGradient>
	<path class="st10" d="M670.3,1826.9v-6c-8.8,21.5-13.7,45.1-13.7,69.7c0,101.6,82.4,184,184,184s184-82.4,184-184
		c0-12.1-1.2-24-3.4-35.4H698.6C683,1855.3,670.3,1842.5,670.3,1826.9z"/>
</g>
</svg>
